<?xml version="1.0" standalone="no"?>
<!DOCTYPE svg PUBLIC "-//W3C//DTD SVG 20010904//EN"
 "http://www.w3.org/TR/2001/REC-SVG-20010904/DTD/svg10.dtd">
<svg version="1.0" xmlns="http://www.w3.org/2000/svg"
 width="1000.000000pt" height="667.000000pt" viewBox="0 0 1000.000000 667.000000"
 preserveAspectRatio="xMidYMid meet">

<g transform="translate(0.000000,667.000000) scale(0.100000,-0.100000)"
fill="#000000" stroke="none">
<path d="M0 6111 l0 -558 61 -7 c96 -10 99 -9 99 19 0 23 4 25 40 25 33 0 40
3 40 20 0 15 7 20 25 20 23 0 25 4 25 40 l0 40 55 0 c48 0 55 2 55 20 0 17 7
20 40 20 39 0 40 1 40 35 0 34 1 35 39 35 29 0 41 -5 44 -17 3 -10 5 1 6 25 1
40 3 42 31 42 28 0 30 2 31 43 1 23 4 32 6 20 4 -19 11 -23 44 -23 28 0 39 4
39 15 0 11 11 15 40 15 36 0 40 3 40 25 0 23 4 25 40 25 39 0 40 1 40 35 0 34
1 35 40 35 22 0 40 5 40 10 0 6 18 10 40 10 57 0 55 27 -2 33 l-43 4 43 1 c30
1 42 6 42 17 0 11 11 15 40 15 29 0 40 -4 40 -15 0 -11 11 -15 40 -15 29 0 40
4 40 15 0 11 11 15 40 15 33 0 40 3 40 20 0 17 7 20 40 20 l40 0 0 40 0 40 58
0 c45 0 60 4 69 19 9 15 20 17 62 13 34 -3 51 -1 51 7 0 6 17 11 40 11 29 0
40 4 40 15 0 11 -11 15 -40 15 -22 0 -40 5 -40 10 0 6 33 10 80 10 l80 0 0 30
c0 28 2 30 40 30 l40 0 0 40 0 40 -42 0 c-23 0 -39 3 -35 6 3 3 40 3 81 -1 55
-5 76 -11 76 -21 0 -10 13 -14 40 -14 29 0 40 4 40 15 0 11 -11 15 -40 15 -39
0 -40 1 -40 35 0 34 1 35 43 37 l42 1 -45 7 -45 7 43 1 c35 2 42 5 42 22 0 17
7 20 40 20 33 0 40 -3 40 -20 0 -17 7 -20 40 -20 22 0 40 4 40 9 0 5 36 12 80
16 69 6 80 10 80 26 0 19 -28 19 -1160 19 l-1160 0 0 -559z m1280 99 c0 -17
-7 -20 -40 -20 -33 0 -40 3 -40 20 0 17 7 20 40 20 33 0 40 -3 40 -20z"/>
<path d="M9120 6645 c0 -22 4 -25 40 -25 22 0 40 -4 40 -10 0 -5 13 -10 29
-10 16 0 43 -3 60 -6 28 -6 31 -10 31 -46 l0 -39 44 6 c24 4 58 4 75 0 28 -6
31 -10 31 -46 l0 -40 65 7 65 7 0 -47 0 -46 80 0 c79 0 80 0 80 -25 0 -23 4
-25 44 -25 26 0 48 -6 56 -15 11 -13 5 -15 -46 -17 -50 -1 -53 -2 -16 -5 23
-2 42 -8 42 -14 0 -5 18 -9 40 -9 22 0 40 -4 40 -10 0 -5 18 -10 40 -10 l40 0
0 225 0 225 -440 0 -440 0 0 -25z"/>
<path d="M2080 6575 c0 -11 11 -15 40 -15 29 0 40 4 40 15 0 11 -11 15 -40 15
-29 0 -40 -4 -40 -15z"/>
<path d="M9158 6583 c23 -2 42 -8 42 -14 0 -5 18 -9 40 -9 29 0 40 4 40 15 0
12 -15 15 -82 13 -46 -1 -64 -3 -40 -5z"/>
<path d="M9938 6183 c12 -2 32 -2 45 0 12 2 2 4 -23 4 -25 0 -35 -2 -22 -4z"/>
<path d="M1120 6095 c0 -11 11 -15 40 -15 29 0 40 4 40 15 0 11 -11 15 -40 15
-29 0 -40 -4 -40 -15z"/>
<path d="M960 6010 c0 -17 7 -20 40 -20 28 0 40 4 40 14 0 10 14 16 43 19 23
2 5 4 -40 5 -77 2 -83 1 -83 -18z"/>
<path d="M0 5450 c0 -23 10 -26 28 -8 18 18 15 28 -8 28 -13 0 -20 -7 -20 -20z"/>
<path d="M1231 3728 c-1 -21 -17 -24 -24 -5 -3 7 -6 4 -6 -7 -1 -16 -3 -16
-17 -5 -31 26 -52 18 -58 -22 -3 -21 -4 -43 -3 -51 2 -7 2 -10 0 -6 -2 4 -12
4 -21 1 -15 -6 -16 -5 -2 12 11 14 12 19 3 22 -7 3 -13 11 -13 19 0 8 -4 14
-10 14 -5 0 -10 -8 -10 -17 0 -15 -2 -16 -10 -3 -7 11 -10 11 -10 2 0 -7 -4
-10 -10 -7 -5 3 -10 2 -10 -3 0 -6 -16 -12 -35 -14 -20 -2 -35 0 -35 6 0 6 -7
0 -16 -12 -13 -19 -14 -25 -2 -39 7 -9 8 -14 3 -11 -6 4 -17 3 -25 -2 -9 -5
-19 -5 -27 2 -16 13 -17 -4 -2 -19 14 -14 -2 -12 -41 4 -18 8 -27 7 -32 -2 -4
-7 -19 -10 -35 -8 -22 4 -25 2 -13 -6 12 -9 11 -11 -7 -11 -16 0 -23 -6 -23
-19 0 -10 -8 -22 -17 -25 -14 -6 -15 -9 -4 -16 8 -4 19 -6 26 -4 13 5 55 -28
55 -45 0 -6 -5 -11 -11 -11 -5 0 -7 5 -4 10 3 6 1 10 -4 10 -6 0 -11 -6 -11
-14 0 -8 -3 -22 -7 -32 -5 -12 -3 -15 6 -9 10 6 12 0 6 -24 -5 -24 -3 -31 9
-31 9 0 16 -6 16 -12 1 -8 6 -6 14 5 13 16 14 15 18 -13 3 -16 1 -30 -4 -30
-4 0 -8 4 -8 9 0 18 -32 20 -56 4 -18 -11 -28 -13 -33 -5 -4 7 -20 8 -54 0
-50 -10 -71 -33 -46 -49 11 -7 12 -9 0 -9 -14 0 -51 -42 -63 -70 -3 -9 -2 -23
3 -31 8 -12 12 -11 23 4 10 13 15 15 19 5 2 -7 8 -1 12 15 7 27 24 37 26 15 0
-7 4 -3 9 10 10 24 30 30 31 10 0 -7 4 -4 9 7 6 15 9 16 9 4 1 -20 39 -18 52
2 7 11 9 10 9 -5 0 -10 8 -25 17 -31 16 -12 13 -14 -22 -20 -22 -4 -54 -13
-72 -21 -17 -8 -35 -14 -40 -14 -5 0 -22 -13 -38 -30 -19 -20 -24 -30 -14 -30
9 0 10 -3 3 -8 -16 -11 -27 -75 -11 -66 8 5 8 3 -1 -9 -26 -31 -7 -39 23 -10
49 48 92 75 98 61 3 -7 6 -5 6 6 1 11 4 16 8 13 3 -4 14 0 24 9 16 15 17 14
12 -7 -4 -15 -3 -20 5 -15 21 13 13 -13 -19 -58 -20 -27 -29 -51 -25 -61 3 -9
10 -13 16 -10 16 10 12 -11 -5 -25 -18 -15 -20 -34 -3 -24 7 5 9 2 5 -9 -4
-12 -2 -14 10 -10 10 4 14 2 9 -5 -3 -6 -4 -28 0 -50 7 -44 31 -52 45 -15 10
28 23 31 16 3 -3 -11 0 -23 6 -27 7 -3 9 -3 5 2 -7 7 14 35 27 35 4 0 4 -12 1
-27 -7 -32 9 -69 18 -43 2 8 7 22 9 30 3 8 6 -3 7 -25 1 -37 2 -39 15 -21 9
11 15 14 15 7 0 -7 7 -19 15 -27 13 -14 15 -13 15 6 0 12 4 19 9 15 6 -3 14 3
20 12 6 10 11 13 11 6 0 -6 -4 -15 -10 -18 -5 -3 -10 -17 -10 -31 0 -14 4 -22
10 -19 6 3 10 -4 10 -16 0 -22 1 -22 14 -4 12 17 14 15 12 -21 -1 -26 3 -38
12 -37 15 4 15 -1 12 -99 -1 -43 0 -78 3 -78 6 0 45 81 50 105 3 11 5 3 6 -17
0 -21 5 -38 10 -38 13 0 21 -253 26 -850 2 -289 9 -577 15 -640 20 -227 29
-429 30 -655 0 -126 3 -247 6 -267 6 -35 9 -38 40 -38 l33 0 -4 308 c-2 169
-10 397 -19 507 -30 408 -36 563 -43 1150 -3 330 -7 627 -8 660 0 33 3 67 8
76 6 9 6 53 0 110 -10 95 -8 123 8 98 5 -8 9 -9 9 -3 0 6 11 12 25 12 17 0 25
-6 25 -19 0 -10 5 -21 10 -24 6 -3 10 -14 10 -25 0 -24 27 -33 38 -13 6 11 11
12 16 4 12 -18 33 -12 39 11 4 14 0 30 -12 43 -20 22 -45 65 -37 65 2 0 14
-16 26 -35 18 -29 25 -33 36 -24 8 6 14 19 14 27 0 12 5 9 17 -8 9 -14 20 -27
24 -30 4 -3 8 -13 10 -23 4 -18 5 -18 31 2 26 21 26 24 21 99 -7 96 -14 109
-63 122 -28 8 -38 15 -34 25 7 18 20 19 31 3 10 -16 35 -17 45 -3 4 6 8 1 8
-10 0 -17 2 -17 10 -5 8 12 10 8 11 -15 1 -18 3 -23 6 -12 4 17 6 17 17 2 11
-16 15 -14 46 16 l33 34 -7 -29 c-7 -26 -6 -28 9 -16 9 7 27 14 41 15 21 1 24
-4 25 -35 l1 -35 10 38 c10 39 15 42 36 28 12 -7 12 -12 0 -32 -7 -13 -18 -29
-25 -36 -6 -7 -9 -22 -6 -33 3 -11 0 -20 -6 -20 -7 0 -11 -6 -10 -12 3 -28 -2
-37 -23 -40 -31 -4 -56 -58 -64 -140 -5 -54 -4 -70 9 -82 14 -14 16 -14 21 2
3 9 2 -12 -1 -48 -3 -36 -9 -75 -14 -87 -6 -15 -5 -23 3 -23 7 0 9 -13 5 -37
-4 -23 -3 -33 2 -24 7 11 10 10 13 -5 3 -13 9 -6 20 26 12 34 17 39 17 21 1
-24 1 -24 16 -5 8 10 15 28 15 39 0 25 17 8 23 -25 3 -16 5 -10 6 17 1 47 20
69 22 26 2 -27 2 -27 6 -3 3 14 9 29 14 35 5 5 9 21 9 36 0 15 5 31 10 34 6 4
7 23 4 44 -5 30 -3 39 11 45 9 3 22 3 27 -1 6 -3 8 -1 4 5 -3 6 14 24 40 42
42 28 49 30 62 16 9 -8 12 -22 8 -32 -6 -16 -8 -16 -17 -4 -8 13 -10 13 -19 0
-5 -8 -10 -21 -10 -28 0 -7 -6 -23 -14 -35 -7 -12 -16 -35 -19 -52 l-6 -30 14
30 c16 33 20 20 6 -17 -5 -13 -20 -29 -33 -36 -40 -22 -51 -69 -43 -185 4 -56
9 -105 12 -109 9 -16 33 -7 33 11 0 22 20 40 20 19 1 -20 26 -49 45 -52 34 -5
43 -62 29 -202 -7 -71 -15 -217 -19 -324 -3 -107 -10 -269 -15 -360 -16 -277
-19 -396 -26 -917 l-7 -503 37 0 c27 0 36 4 37 18 0 9 4 292 9 627 10 680 33
1325 53 1485 11 86 18 113 42 149 27 40 30 42 39 22 9 -20 9 -20 22 5 8 15 14
40 14 58 0 17 7 49 15 71 l14 40 2 -50 c2 -81 7 -108 21 -116 22 -14 24 -11
37 56 7 36 17 65 22 65 5 0 9 9 9 20 0 12 9 30 20 42 11 12 20 28 20 35 0 7 5
13 10 13 6 0 10 -7 10 -16 0 -8 4 -12 10 -9 10 6 15 -35 11 -82 -2 -26 16 -30
44 -9 12 8 18 25 18 47 -1 19 1 28 4 22 3 -7 12 -13 21 -13 13 1 12 5 -8 21
-16 14 -24 31 -25 52 0 29 -3 32 -28 29 -19 -2 -26 1 -22 8 3 6 11 8 16 5 5
-4 9 -1 9 4 0 6 -4 11 -8 11 -14 0 -62 107 -56 124 12 30 34 18 34 -19 0 -39
6 -42 37 -20 16 12 22 12 26 2 3 -6 6 -1 7 13 1 14 4 20 6 13 3 -7 12 -9 21
-6 8 3 19 0 23 -7 5 -8 10 -2 15 19 3 17 15 37 26 44 18 13 18 14 -9 27 -24
12 -25 14 -7 18 10 2 21 -1 23 -7 7 -22 21 -10 28 24 6 34 18 40 41 19 9 -9 9
-21 2 -48 -6 -20 -8 -40 -6 -44 3 -4 -2 -13 -10 -21 -12 -11 -14 -11 -12 0 3
26 -1 39 -13 39 -6 0 -8 -3 -5 -7 4 -3 0 -15 -10 -25 -9 -10 -13 -21 -10 -24
3 -4 1 -16 -5 -28 -14 -25 -16 -76 -4 -76 5 0 6 -40 3 -90 -4 -73 -3 -90 9
-90 8 0 14 -6 14 -14 0 -28 30 -27 42 2 6 15 17 41 24 59 8 17 14 37 15 45 0
7 4 4 9 -7 10 -23 13 9 15 132 1 39 6 77 12 85 5 7 16 28 24 46 13 31 14 31
21 10 6 -22 6 -21 7 4 1 30 18 47 27 25 3 -8 -4 -29 -15 -47 -10 -18 -17 -39
-14 -46 3 -8 1 -14 -5 -14 -5 0 -13 -11 -16 -25 -4 -14 -10 -24 -15 -21 -4 3
-3 -22 2 -56 6 -44 6 -63 -3 -68 -6 -4 -15 -51 -20 -109 -9 -97 -6 -136 9
-127 4 3 7 -30 7 -72 -1 -58 3 -85 17 -105 22 -34 22 -73 -2 -377 -19 -241
-37 -561 -35 -610 1 -14 -7 -160 -18 -325 -10 -165 -21 -370 -24 -455 -2 -85
-6 -203 -8 -262 l-4 -108 38 0 37 0 7 223 c4 122 11 319 16 437 5 118 14 343
19 500 6 157 16 348 21 425 6 77 17 244 25 370 17 264 24 342 36 370 7 17 8
17 8 3 1 -21 17 -24 24 -5 4 9 7 9 14 0 7 -10 13 -8 25 6 18 21 27 65 29 144
1 31 3 57 4 57 2 0 10 -16 19 -35 10 -20 21 -33 27 -30 5 4 9 -3 9 -14 0 -11
4 -22 10 -26 12 -7 50 16 50 31 0 7 8 11 18 10 13 -1 16 6 15 29 -1 17 0 25 3
19 9 -20 53 8 60 39 8 38 24 34 24 -8 0 -19 4 -35 9 -35 5 0 12 -12 16 -27 8
-30 20 -1155 18 -1593 -1 -146 -9 -359 -17 -475 -9 -116 -19 -256 -23 -313
l-6 -104 34 4 34 3 7 90 c30 379 49 979 32 1006 -3 6 -8 286 -10 623 -2 336
-4 665 -5 731 -1 154 1 177 20 162 11 -10 13 -8 6 12 -5 17 -4 22 5 16 8 -5
11 -2 7 11 -17 60 -17 85 -2 119 11 21 24 35 36 35 10 0 25 13 34 30 9 17 18
30 20 30 2 0 2 -13 -2 -30 -3 -18 -1 -30 5 -30 5 0 13 -12 17 -27 l7 -28 13
30 c7 17 14 24 14 16 1 -19 15 -5 16 17 4 55 6 63 15 57 6 -3 10 -18 10 -33 0
-21 2 -24 10 -12 15 23 12 57 -6 74 -10 10 -11 16 -3 16 9 0 9 3 -1 15 -6 8
-9 19 -5 25 3 5 1 11 -4 11 -20 3 -26 4 -38 12 -6 4 -18 4 -27 1 -11 -4 -24 3
-37 20 -12 15 -28 25 -35 22 -8 -3 -14 -1 -14 3 0 5 -3 17 -7 26 -5 14 -3 16
13 8 10 -6 25 -8 33 -5 8 3 11 0 7 -7 -5 -7 -1 -9 10 -4 14 5 16 2 12 -15 -7
-25 1 -28 21 -9 11 10 11 8 1 -13 -10 -22 -9 -22 14 5 14 17 25 24 26 18 0 -7
11 -13 25 -13 16 0 25 -6 25 -16 0 -8 8 -23 17 -32 16 -16 16 -16 11 0 -10 25
24 33 43 10 13 -17 19 -18 37 -8 18 10 20 14 10 25 -11 10 -9 12 7 9 26 -4 46
63 27 93 -7 11 -10 24 -7 29 9 14 -45 50 -75 50 -22 0 -29 6 -34 28 -3 15 -8
37 -12 49 -6 20 -4 21 27 13 19 -5 60 -15 92 -21 40 -7 57 -15 57 -26 0 -12 3
-13 15 -3 11 9 12 16 2 30 -8 14 -13 16 -19 7 -5 -8 -8 -4 -8 11 0 12 -5 22
-10 22 -6 0 -9 5 -8 12 2 7 -6 12 -17 13 -11 0 -19 6 -17 13 4 23 -30 26 -48
4 -10 -12 -20 -18 -24 -15 -3 4 -6 -2 -6 -12 0 -13 -3 -15 -13 -7 -8 7 -18 7
-27 2 -8 -5 -18 -6 -22 -4 -14 9 -9 34 7 34 9 0 15 9 15 23 0 31 -15 51 -33
44 -21 -8 -14 45 9 82 16 24 16 25 1 12 -10 -7 -17 -9 -17 -3 0 6 16 20 35 32
27 17 33 25 25 35 -8 9 -8 15 0 20 5 3 10 10 10 15 0 9 -26 8 -36 -3 -4 -3
-15 -2 -26 4 -11 6 -26 8 -34 5 -8 -3 -14 0 -14 7 0 7 -11 -1 -25 -17 -14 -17
-35 -31 -45 -33 -24 -4 -27 12 -4 21 9 4 14 9 11 13 -10 9 -59 -26 -52 -38 9
-14 -5 -50 -17 -43 -6 4 -5 10 3 15 11 7 9 9 -6 10 l-20 0 20 9 c11 5 14 9 7
9 -7 1 -11 5 -7 10 3 5 -3 12 -12 14 -16 4 -15 6 4 12 22 7 40 35 23 35 -5 0
-12 9 -15 21 -4 11 -12 18 -19 16 -7 -3 -12 3 -12 15 1 16 -6 21 -35 24 -45 5
-83 -26 -73 -59 6 -19 5 -20 -9 -8 -9 7 -15 17 -12 21 11 17 -51 26 -103 14
-18 -4 -21 -8 -13 -23 12 -22 10 -60 -2 -58 -5 1 -12 -4 -14 -10 -3 -7 0 -13
6 -13 6 0 7 -7 4 -17 -5 -12 -3 -14 7 -8 10 6 12 4 7 -9 -4 -10 -3 -15 3 -11
6 4 17 0 25 -8 12 -13 11 -14 -12 -14 -14 0 -28 -6 -32 -12 -5 -8 -15 -5 -32
9 -17 16 -25 18 -28 8 -2 -7 -10 -16 -17 -21 -7 -4 -11 -14 -8 -22 4 -8 1 -15
-5 -15 -6 0 -11 5 -11 10 0 6 -5 10 -11 10 -5 0 -7 -4 -4 -10 3 -5 1 -10 -4
-10 -6 0 -11 7 -11 15 0 8 7 15 15 15 9 0 12 6 9 15 -4 8 -1 15 5 15 6 0 11
-5 11 -11 0 -5 5 -7 11 -4 6 5 4 12 -8 21 -17 13 -17 13 1 14 15 0 16 3 6 15
-13 16 -45 21 -36 6 9 -13 -26 -23 -38 -11 -14 14 -26 12 -26 -4 0 -8 -6 -17
-12 -19 -7 -3 -4 -6 7 -7 18 -1 18 -2 3 -11 -9 -5 -15 -16 -12 -23 3 -8 1 -17
-5 -20 -7 -4 -7 -15 -1 -30 7 -18 5 -28 -9 -40 -26 -23 -51 -20 -52 7 0 12 -3
16 -6 9 -2 -6 -10 -9 -16 -5 -19 12 -111 2 -120 -13 -10 -18 -31 -18 -47 1
-20 25 -58 18 -74 -12 -8 -16 -25 -39 -39 -51 -24 -23 -26 -23 -36 -5 -8 14
-11 15 -11 3 -1 -10 -4 -9 -10 5 -7 16 -9 17 -9 3 -1 -20 -37 -13 -45 9 -5 12
-1 14 14 10 16 -4 18 -2 10 13 -7 13 -6 20 3 23 6 3 3 6 -8 6 -12 1 -26 -4
-33 -11 -6 -6 -15 -8 -19 -4 -4 4 -1 11 6 15 7 5 11 15 9 22 -4 9 -10 5 -18
-13 -16 -34 -33 -37 -24 -4 7 30 -9 41 -30 20 -15 -14 -16 -14 -16 2 0 15 -3
15 -23 -4 -13 -12 -35 -22 -50 -22 -14 0 -31 -8 -36 -17 -10 -17 -10 -17 -11
-1 0 11 11 20 32 26 17 4 34 14 36 21 3 8 0 11 -7 7 -7 -5 -11 1 -11 15 0 18
-2 19 -15 9 -12 -10 -15 -10 -15 2 0 7 -14 22 -30 31 -34 21 -32 23 -49 -67
-10 -52 -9 -60 7 -72 15 -12 14 -14 -13 -13 -52 1 -82 -7 -110 -30 -38 -29
-57 -26 -20 4 29 23 29 24 7 25 -13 0 -20 -4 -17 -10 3 -5 1 -10 -4 -10 -13 0
-14 10 -2 30 14 20 3 32 -18 20 -10 -5 -21 -6 -25 -2 -15 14 -93 12 -106 -3
-10 -12 -10 -15 0 -15 7 0 32 -20 57 -44 43 -43 44 -45 38 -93 -5 -40 -4 -46
7 -33 18 21 42 25 35 6 -4 -9 1 -19 10 -24 9 -6 12 -12 5 -16 -5 -3 -12 1 -16
9 -7 19 -26 20 -26 1 0 -31 -19 -24 -45 15 -22 34 -30 40 -48 34 -12 -4 -33
-8 -47 -10 -41 -4 -41 -5 -35 -15 11 -18 -11 -11 -30 10 -10 11 -15 28 -12 39
7 29 -20 61 -51 61 -26 1 -27 1 -7 16 19 16 19 16 -5 9 -14 -4 -29 -11 -35
-16 -5 -5 -24 -9 -41 -9 -52 0 -83 -36 -88 -101 -2 -30 -5 -57 -5 -60 -1 -4
-19 -6 -41 -5 -29 1 -44 8 -56 24 -24 34 -9 39 41 14 67 -33 69 -26 3 9 -32
16 -58 31 -58 33 0 1 9 13 19 25 15 17 29 22 58 20 25 -2 37 1 35 9 -1 7 2 12
8 12 6 0 6 9 1 23 -9 24 -11 23 50 29 17 2 20 7 15 29 -4 23 0 31 25 47 l31
19 -28 10 c-24 9 -29 16 -29 44 0 29 8 40 69 89 47 37 64 56 53 58 -10 2 -17
8 -17 13 0 6 -9 7 -22 3 -19 -6 -21 -5 -11 8 23 27 0 29 -29 1 -27 -26 -41
-21 -15 6 10 10 9 12 -3 9 -8 -2 -19 -12 -24 -23 l-8 -20 -8 20 c-5 11 -9 15
-9 9 -1 -7 -12 -19 -26 -28 -14 -9 -25 -13 -24 -9 1 4 1 15 0 23 -1 13 -2 13
-11 0 -7 -12 -12 -8 -21 18 -12 35 -35 45 -24 11 5 -14 3 -19 -3 -15 -6 3 -14
20 -17 37 -4 18 -15 33 -25 36 -11 3 -21 15 -23 27 -3 15 -5 16 -6 4z m71
-136 c3 -9 1 -26 -3 -37 -9 -23 -9 -22 -13 23 -4 34 8 45 16 14z m101 -26 c4
-10 1 -13 -9 -9 -15 6 -19 23 -5 23 5 0 11 -7 14 -14z m1822 -44 c2 -12 7 -27
10 -32 3 -6 2 -10 -4 -10 -14 0 -33 38 -26 50 3 6 1 10 -4 10 -6 0 -11 8 -11
17 0 15 2 16 15 2 9 -8 17 -25 20 -37z m-2255 -8 c0 -22 -2 -25 -15 -14 -12
10 -13 16 -4 26 16 20 19 18 19 -12z m2155 14 c14 -42 10 -50 -25 -54 -19 -3
-36 -9 -38 -14 -5 -14 -42 -13 -42 1 0 6 7 9 15 5 8 -3 15 -1 15 4 0 5 11 12
24 16 14 3 27 13 31 21 8 23 0 26 -19 7 -9 -9 -20 -14 -23 -10 -8 8 27 35 45
36 7 0 15 -6 17 -12z m-301 -33 c3 -8 1 -15 -3 -15 -5 0 -11 7 -15 15 -3 8 -1
15 3 15 5 0 11 -7 15 -15z m366 -5 c-8 -5 -18 -6 -24 -3 -5 4 -1 10 10 13 24
9 34 2 14 -10z m-202 -32 c-2 -12 -8 -23 -14 -25 -7 -2 -10 6 -7 22 6 30 26
34 21 3z m269 6 c-3 -3 -12 -4 -19 -1 -8 3 -5 6 6 6 11 1 17 -2 13 -5z m-1857
-24 c0 -5 -4 -10 -10 -10 -5 0 -10 5 -10 10 0 6 5 10 10 10 6 0 10 -4 10 -10z
m1835 0 c3 -5 1 -10 -4 -10 -6 0 -11 5 -11 10 0 6 2 10 4 10 3 0 8 -4 11 -10z
m-225 -24 c0 -13 7 -26 15 -30 8 -3 15 -12 15 -20 0 -10 6 -13 15 -10 8 4 15
1 15 -6 0 -7 7 -10 15 -6 19 7 19 -1 0 -20 -13 -14 -16 -14 -21 0 -6 15 -28
17 -49 4 -5 -3 -19 -2 -30 2 -17 7 -15 9 15 18 30 9 31 10 10 11 -22 1 -25 5
-24 34 2 45 3 47 14 47 6 0 10 -11 10 -24z m-190 10 c0 -2 -11 -6 -25 -8 -14
-3 -25 -1 -25 3 0 5 11 9 25 9 14 0 25 -2 25 -4z m-1490 -51 c0 -8 -6 -12 -15
-9 -9 4 -16 -3 -20 -19 -5 -19 -12 -23 -26 -20 -12 3 -18 11 -15 19 3 8 1 14
-5 14 -6 0 -7 5 -4 11 4 6 13 8 19 6 7 -3 19 -1 27 4 21 13 39 11 39 -6z m720
-6 c0 -6 -4 -7 -10 -4 -5 3 -10 11 -10 16 0 6 5 7 10 4 6 -3 10 -11 10 -16z
m1387 2 c1 -14 -3 -18 -13 -14 -17 6 -18 20 -1 26 6 3 12 6 12 6 1 1 1 -8 2
-18z m-822 -1 c3 -5 1 -10 -4 -10 -6 0 -11 5 -11 10 0 6 2 10 4 10 3 0 8 -4
11 -10z m775 6 c0 -11 -19 -15 -25 -6 -3 5 1 10 9 10 9 0 16 -2 16 -4z m-907
-46 c-5 -20 -2 -22 42 -24 17 -1 20 -8 20 -44 0 -43 10 -56 18 -24 3 11 5 9 6
-8 1 -20 3 -22 11 -10 9 13 10 13 9 0 0 -8 -6 -30 -13 -48 l-12 -33 -18 20
c-26 29 -46 27 -44 -5 2 -19 7 -24 20 -21 10 3 18 1 18 -4 0 -5 -4 -9 -10 -9
-5 0 -8 -6 -6 -12 1 -7 1 -10 -1 -5 -3 4 -12 7 -20 7 -12 0 -13 -3 -4 -13 6
-8 8 -17 5 -20 -7 -6 -45 12 -56 27 -4 6 -12 5 -21 -2 -12 -10 -16 -9 -20 8
-3 11 -1 23 4 26 5 3 9 -3 9 -12 0 -14 3 -15 12 -6 14 14 42 16 33 3 -3 -5 -1
-12 5 -16 5 -3 10 -3 11 2 5 60 6 84 2 67 -2 -13 -14 -24 -28 -26 -15 -3 -22
-1 -19 7 3 7 -5 14 -20 17 -17 3 -23 1 -19 -8 3 -9 -3 -12 -23 -8 -41 7 -40
10 5 34 23 11 39 24 37 29 -7 10 19 35 59 55 20 10 24 16 13 16 -10 0 -18 5
-18 10 0 14 -37 12 -43 -2 -4 -10 -6 -10 -6 -1 -1 6 4 15 9 18 6 3 10 15 10
25 0 10 6 20 13 23 19 7 36 -12 30 -33z m694 29 c13 -13 6 -42 -8 -33 -5 3 -7
10 -4 15 4 5 -1 9 -9 9 -9 0 -16 5 -16 10 0 13 23 13 37 -1z m-1763 -14 c26
-19 14 -30 -13 -13 -15 9 -24 10 -29 2 -4 -6 -15 -13 -24 -17 -14 -5 -18 -1
-18 15 0 17 2 18 15 8 12 -10 15 -10 15 4 0 20 28 20 54 1z m-277 -17 c-3 -8
-6 -5 -6 6 -1 11 2 17 5 13 3 -3 4 -12 1 -19z m1637 -3 c-7 -16 -24 -21 -24
-6 0 8 7 13 27 20 1 1 0 -6 -3 -14z m-1897 -20 c-4 -8 -11 -15 -17 -15 -6 0
-6 7 2 20 14 22 24 19 15 -5z m148 15 c-19 -8 -19 -9 2 -9 12 -1 24 5 26 12 4
8 5 7 6 -3 0 -19 -17 -59 -18 -42 -1 17 -17 15 -37 -5 -16 -16 -16 -16 -10 5
6 17 4 21 -8 16 -11 -4 -14 0 -13 15 1 17 8 21 37 20 29 0 31 -2 15 -9z m2388
-15 c3 -16 0 -24 -7 -22 -14 4 -21 47 -8 47 5 0 12 -11 15 -25z m-1338 -5 c3
-5 1 -10 -4 -10 -6 0 -11 5 -11 10 0 6 2 10 4 10 3 0 8 -4 11 -10z m-139 -27
c-10 -10 -19 5 -10 18 6 11 8 11 12 0 2 -7 1 -15 -2 -18z m54 17 c0 -5 -4 -10
-10 -10 -5 0 -10 5 -10 10 0 6 5 10 10 10 6 0 10 -4 10 -10z m-703 -22 c-3 -8
-6 -5 -6 6 -1 11 2 17 5 13 3 -3 4 -12 1 -19z m753 8 c0 -8 -4 -18 -10 -21 -5
-3 -10 3 -10 14 0 12 5 21 10 21 6 0 10 -6 10 -14z m990 -1 c0 -8 -4 -15 -10
-15 -5 0 -10 7 -10 15 0 8 5 15 10 15 6 0 10 -7 10 -15z m-2140 -10 c10 -12
10 -15 -3 -15 -8 0 -20 7 -27 15 -10 12 -10 15 3 15 8 0 20 -7 27 -15z m2468
-7 c54 -24 102 -65 102 -86 0 -11 -3 -12 -14 -3 -9 8 -16 8 -20 2 -9 -14 -36
-2 -36 15 0 8 -9 14 -21 14 -12 0 -19 -5 -16 -12 2 -7 10 -12 17 -10 8 2 10
-3 6 -13 -3 -9 -2 -13 4 -10 6 3 10 -1 10 -9 0 -23 -15 -20 -47 9 -24 21 -26
26 -13 35 8 5 10 10 4 10 -6 0 -17 11 -24 25 -16 30 -27 32 -35 5 -6 -20 -25
-28 -25 -10 0 8 50 60 58 60 1 0 24 -10 50 -22z m-2408 3 c0 -5 -6 -13 -12
-18 -19 -15 -58 -23 -58 -12 0 5 9 9 20 9 11 0 20 7 20 15 0 8 7 15 15 15 8 0
15 -4 15 -9z m964 -17 c8 -21 -12 -17 -24 6 -8 16 -8 18 4 14 8 -3 17 -12 20
-20z m711 16 c3 -5 1 -10 -4 -10 -6 0 -11 5 -11 10 0 6 2 10 4 10 3 0 8 -4 11
-10z m351 -5 c-4 -12 3 -15 30 -15 21 0 33 -4 29 -10 -4 -6 -11 -8 -16 -4 -6
3 -18 2 -27 -2 -9 -4 -21 -8 -27 -10 -5 -1 -18 -5 -28 -9 -14 -6 -16 -4 -10
11 9 24 35 54 46 54 5 0 7 -7 3 -15z m154 -17 c0 -2 -9 -4 -20 -4 -19 0 -27
16 -14 29 6 5 34 -16 34 -25z m-1590 -10 c0 -5 -9 -3 -20 4 -11 7 -20 16 -20
20 0 5 9 3 20 -4 11 -7 20 -16 20 -20z m-510 1 c0 -5 -4 -9 -8 -9 -5 0 -9 7
-9 15 0 8 4 12 9 9 4 -3 8 -9 8 -15z m277 15 c-3 -3 -12 -4 -19 -1 -8 3 -5 6
6 6 11 1 17 -2 13 -5z m986 -27 c-3 -5 -9 -3 -14 4 -4 7 -5 17 -2 22 3 5 9 3
14 -4 4 -7 5 -17 2 -22z m-854 -4 c10 -17 10 -17 11 0 0 21 28 23 37 1 3 -8 1
-20 -6 -27 -8 -8 -11 -8 -11 2 0 7 -5 9 -12 4 -7 -4 -23 -8 -35 -8 -17 -1 -23
5 -23 22 0 27 24 31 39 6z m140 -10 c-9 -23 -7 -30 9 -43 16 -13 17 -18 5 -28
-10 -10 -13 -10 -13 3 0 8 -4 15 -10 15 -5 0 -10 9 -10 19 0 26 -21 32 -42 13
-16 -14 -18 -13 -18 6 0 17 6 22 28 22 15 0 34 5 42 10 21 13 21 13 9 -17z
m1536 17 c3 -6 -4 -10 -17 -10 -18 0 -20 2 -8 10 19 12 18 12 25 0z m125 0 c0
-5 -4 -10 -10 -10 -5 0 -10 5 -10 10 0 6 5 10 10 10 6 0 10 -4 10 -10z m-340
-10 c0 -12 -17 -22 -23 -13 -2 5 -2 2 -1 -4 2 -7 0 -13 -5 -13 -4 0 -25 -11
-46 -25 -41 -29 -46 -28 -50 10 -3 23 0 25 32 25 25 0 34 4 30 13 -4 10 5 14
29 15 19 1 34 -3 34 -8z m130 -33 c0 -5 -7 -7 -15 -4 -8 4 -17 2 -20 -3 -9
-14 -65 -12 -65 1 0 6 6 9 14 6 7 -3 24 5 37 18 22 21 25 21 37 7 6 -9 12 -20
12 -25z m150 12 c0 -5 4 -8 9 -5 14 9 41 -4 41 -19 0 -22 -24 -23 -42 -1 -15
18 -19 19 -27 6 -6 -8 -13 -11 -16 -8 -7 7 15 37 28 38 4 0 7 -5 7 -11z m70 1
c0 -5 -2 -10 -4 -10 -3 0 -8 5 -11 10 -3 6 -1 10 4 10 6 0 11 -4 11 -10z
m-330 -10 c0 -5 -4 -10 -10 -10 -5 0 -11 -12 -11 -27 -2 -24 -2 -25 -6 -5 -2
12 -9 20 -14 17 -14 -9 -11 2 7 19 18 18 34 21 34 6z m-2021 -53 c-7 -24 -6
-27 6 -17 13 10 15 8 15 -15 0 -20 -4 -26 -15 -21 -8 3 -19 -2 -24 -12 -13
-21 -14 -6 -2 34 5 18 5 37 -1 47 -12 23 -1 40 16 25 9 -9 11 -22 5 -41z m269
-8 c-2 -21 -6 -39 -10 -39 -5 0 -8 -20 -8 -45 0 -33 4 -45 15 -45 20 0 19 -36
-1 -44 -28 -11 -41 -6 -52 19 -6 14 -18 25 -27 25 -8 0 -15 5 -15 10 0 6 4 10
8 10 9 0 69 79 71 93 0 4 1 21 1 38 0 18 4 28 10 24 6 -4 9 -24 8 -46z m1102
25 c0 -20 -7 -17 -20 6 -9 16 -8 18 5 14 8 -4 15 -12 15 -20z m990 16 c0 -5
-4 -10 -10 -10 -5 0 -10 5 -10 10 0 6 5 10 10 10 6 0 10 -4 10 -10z m-2006
-42 c34 -61 45 -105 12 -53 -46 74 -57 95 -47 95 6 0 21 -19 35 -42z m891 12
c3 -5 2 -10 -4 -10 -5 0 -13 5 -16 10 -3 6 -2 10 4 10 5 0 13 -4 16 -10z m78
-33 c-3 -5 -11 0 -18 10 -7 10 -11 21 -8 26 3 5 11 0 18 -10 7 -10 11 -21 8
-26z m143 27 c-10 -7 -13 -15 -7 -18 6 -4 8 -13 4 -21 -6 -17 -33 -20 -33 -4
0 5 -5 7 -12 3 -6 -4 -8 -3 -4 4 3 6 -1 17 -9 25 -22 22 -20 24 31 24 40 0 44
-2 30 -13z m312 -16 c-2 -13 -7 -29 -11 -36 -9 -13 19 -30 30 -18 4 3 1 6 -5
6 -7 0 -12 5 -12 10 0 6 7 10 15 10 18 0 20 -21 3 -38 -9 -9 -7 -13 8 -19 10
-4 25 -12 32 -19 21 -21 -7 -28 -31 -7 -18 14 -19 15 -8 1 15 -20 5 -42 -15
-34 -8 3 -14 0 -14 -6 0 -9 -3 -9 -11 -1 -8 8 -16 6 -31 -9 -22 -22 -25 -21
-30 7 -1 11 -9 26 -17 34 -11 13 -10 16 9 23 28 10 45 1 29 -18 -21 -25 7 -15
29 11 17 19 18 26 8 32 -7 4 -16 25 -20 45 -6 33 -4 37 16 41 13 2 24 5 26 6
1 0 1 -9 0 -21z m685 15 c3 -5 -1 -13 -8 -20 -10 -9 -14 -8 -18 8 -5 18 16 28
26 12z m-2306 -33 c3 0 11 7 18 16 10 14 15 14 34 4 l23 -12 -21 -19 c-13 -12
-30 -18 -46 -15 -14 3 -25 2 -25 -2 0 -4 -3 -18 -6 -32 -4 -20 -3 -22 5 -10 8
12 11 6 10 -25 -1 -34 -2 -36 -9 -15 l-7 25 -4 -29 c-6 -41 -23 -42 -37 -3
-17 47 -16 54 18 84 17 14 31 36 31 47 1 17 2 18 6 4 2 -10 7 -18 10 -18z
m2050 8 c-3 -8 -6 -5 -6 6 -1 11 2 17 5 13 3 -3 4 -12 1 -19z m-829 -23 c-6
-14 -16 -25 -21 -25 -5 0 -7 -8 -5 -18 3 -10 0 -19 -6 -19 -20 0 -15 55 5 60
11 3 19 13 19 22 0 9 4 14 10 10 6 -3 5 -15 -2 -30z m1307 16 c3 -5 1 -12 -5
-16 -5 -3 -10 1 -10 9 0 18 6 21 15 7z m-2621 -16 c-6 -16 -24 -21 -24 -7 0
11 11 22 21 22 5 0 6 -7 3 -15z m276 6 c0 -17 -18 -21 -24 -6 -3 9 0 15 9 15
8 0 15 -4 15 -9z m530 5 c0 -3 -4 -8 -10 -11 -5 -3 -10 -1 -10 4 0 6 5 11 10
11 6 0 10 -2 10 -4z m311 -23 c-12 -20 -14 -14 -5 12 4 9 9 14 11 11 3 -2 0
-13 -6 -23z m489 23 c0 -3 -4 -8 -10 -11 -5 -3 -10 -1 -10 4 0 6 5 11 10 11 6
0 10 -2 10 -4z m-210 -42 c0 -8 -5 -12 -10 -9 -6 4 -8 11 -5 16 9 14 15 11 15
-7z m230 -8 c0 -3 -4 -8 -10 -11 -5 -3 -10 -1 -10 4 0 6 5 11 10 11 6 0 10 -2
10 -4z m644 -47 c-7 -12 -41 24 -36 39 3 9 10 6 23 -9 10 -12 16 -25 13 -30z
m-1062 19 c-7 -7 -12 -8 -12 -2 0 14 12 26 19 19 2 -3 -1 -11 -7 -17z m816 -3
c-2 -19 -8 -25 -27 -25 l-24 0 24 24 c13 13 25 24 26 25 2 1 2 -10 1 -24z
m-1013 -4 c17 -10 29 -26 29 -35 -2 -23 27 -20 33 4 3 11 11 20 19 20 7 0 17
8 23 17 5 10 13 15 17 10 4 -4 -6 -18 -22 -33 -23 -20 -25 -25 -10 -22 22 4
30 -11 16 -32 -9 -13 -11 -13 -20 0 -5 8 -10 10 -10 4 0 -6 -14 -11 -30 -12
-17 0 -28 3 -25 8 3 4 -2 11 -11 14 -8 3 -13 2 -10 -2 2 -4 1 -14 -5 -22 -6
-11 -9 -7 -9 15 l0 30 -18 -25 c-9 -14 -24 -24 -32 -24 -8 1 -20 2 -26 3 -17
2 -24 39 -9 45 19 7 56 -5 49 -15 -3 -5 -3 -9 1 -9 14 0 25 53 14 66 -15 19
-1 16 36 -5z m455 -24 c0 -5 -4 -5 -10 -2 -5 3 -15 -5 -21 -19 -11 -24 -39
-26 -39 -3 0 6 3 8 6 4 11 -10 34 20 34 44 0 22 0 22 15 3 8 -10 15 -23 15
-27z m715 22 c4 -6 13 -8 20 -5 7 2 23 -6 36 -20 27 -29 18 -30 -36 -4 -49 24
-54 24 -77 3 -15 -13 -18 -14 -18 -2 0 33 59 55 75 28z m-975 -21 c0 -13 -23
-5 -28 10 -2 7 2 10 12 6 9 -3 16 -11 16 -16z m-820 -3 c11 -13 10 -14 -4 -9
-9 3 -16 10 -16 15 0 13 6 11 20 -6z m779 0 c8 0 16 -6 19 -14 3 -10 0 -12
-12 -8 -14 6 -21 -3 -17 -25 0 -5 -6 -8 -14 -8 -8 0 -15 5 -15 10 0 6 5 10 11
10 8 0 8 4 -1 15 -6 8 -9 19 -5 26 4 6 10 7 14 3 3 -5 12 -9 20 -9z m375 -26
c20 -1 20 -2 1 -6 -11 -3 -26 -10 -32 -15 -9 -7 -18 -7 -28 2 -12 10 -12 15 2
37 17 26 17 26 27 4 5 -11 18 -22 30 -22z m759 -10 c-8 -29 -13 -23 -13 14 0
22 3 28 9 18 5 -7 6 -22 4 -32z m-680 -15 c-2 -7 0 -15 6 -19 21 -13 10 -23
-13 -12 -13 6 -21 17 -19 24 3 7 0 13 -6 13 -8 0 -8 6 1 19 11 18 13 18 24 3
6 -9 10 -22 7 -28z m437 37 c0 -6 -4 -13 -10 -16 -5 -3 -10 1 -10 9 0 9 5 16
10 16 6 0 10 -4 10 -9z m-603 -23 c-3 -8 -6 -5 -6 6 -1 11 2 17 5 13 3 -3 4
-12 1 -19z m886 -8 c5 -18 3 -19 -11 -8 -9 7 -19 13 -21 15 -1 1 0 7 4 12 9
15 21 6 28 -19z m-603 -12 c0 6 5 12 12 12 9 0 9 -3 0 -12 -7 -7 -12 -21 -12
-32 0 -26 -6 -18 -14 19 -5 22 -4 26 4 15 6 -10 10 -11 10 -2z m-1576 -34 c3
-8 2 -12 -4 -9 -6 3 -10 10 -10 16 0 14 7 11 14 -7z m1846 -31 c0 -3 -5 -1
-11 3 -7 4 -10 1 -7 -7 2 -8 16 -15 30 -17 33 -4 66 -38 51 -53 -8 -8 -13 -7
-18 2 -5 8 -4 10 3 5 7 -4 12 -3 12 3 0 5 -9 9 -20 8 -24 -2 -24 -2 -6 -30 8
-12 17 -33 21 -47 7 -25 7 -25 -15 4 -19 24 -24 26 -32 12 -5 -8 -15 -13 -24
-9 -11 4 -12 9 -3 19 9 11 8 14 -5 14 -11 0 -16 -9 -16 -29 0 -39 -9 -61 -26
-61 -19 0 -35 -34 -37 -79 -1 -32 -3 -36 -13 -23 -9 12 -8 30 2 75 8 33 14 64
13 71 -1 6 -1 27 0 46 l2 35 15 -25 15 -25 -5 27 c-4 17 0 32 10 42 10 10 11
16 3 16 -9 0 -9 3 1 15 6 8 9 23 5 36 -7 21 -7 21 24 -2 17 -12 31 -24 31 -26z
m-1100 22 c0 -8 -4 -15 -10 -15 -5 0 -7 7 -4 15 4 8 8 15 10 15 2 0 4 -7 4
-15z m70 0 c0 -8 -5 -15 -11 -15 -5 0 -7 4 -4 10 3 6 -1 7 -9 4 -9 -3 -16 -1
-16 5 0 6 9 11 20 11 11 0 20 -7 20 -15z m860 5 c0 -5 -4 -10 -10 -10 -5 0
-10 5 -10 10 0 6 5 10 10 10 6 0 10 -4 10 -10z m-650 -10 c0 -5 -5 -10 -11
-10 -5 0 -7 5 -4 10 3 6 8 10 11 10 2 0 4 -4 4 -10z m220 -17 c25 -22 25 -29
-1 -36 -12 -3 -19 -3 -16 0 3 3 2 16 -3 29 -11 28 -7 30 20 7z m-350 -9 c0 -8
-5 -12 -10 -9 -6 4 -8 11 -5 16 9 14 15 11 15 -7z m400 12 c0 -3 -4 -8 -10
-11 -5 -3 -10 -1 -10 4 0 6 5 11 10 11 6 0 10 -2 10 -4z m743 -3 c-7 -2 -21
-2 -30 0 -10 3 -4 5 12 5 17 0 24 -2 18 -5z m-1283 -13 c0 -9 -31 -30 -44 -30
-3 0 2 9 11 20 19 21 33 26 33 10z m276 -48 c-3 10 -1 20 4 23 6 4 10 2 10 -3
0 -5 11 -14 25 -20 15 -7 25 -20 25 -33 0 -14 5 -19 14 -16 22 9 33 -27 17
-52 -7 -10 -15 -7 -41 15 -18 16 -36 38 -41 49 -9 18 -9 18 -5 -2 2 -13 0 -26
-5 -29 -5 -3 -7 -9 -4 -14 3 -5 1 -19 -5 -30 -9 -16 -8 -20 5 -20 21 0 19 -34
-5 -55 -22 -20 -28 -8 -7 14 7 9 8 11 0 7 -6 -3 -15 7 -22 26 -16 44 -14 55
10 61 17 5 20 11 15 29 -4 13 -9 39 -12 58 l-5 35 16 -30 c8 -16 13 -22 11
-13z m107 -26 c4 -10 1 -13 -8 -9 -8 3 -12 9 -9 14 7 12 11 11 17 -5z m881
-75 c-3 -3 -9 1 -14 9 -6 8 -10 11 -10 5 -1 -22 -20 22 -20 45 1 23 3 21 25
-15 13 -21 22 -41 19 -44z m-94 49 c6 -11 8 -20 6 -20 -3 0 -10 9 -16 20 -6
11 -8 20 -6 20 3 0 10 -9 16 -20z m135 -37 c9 -14 13 -28 8 -32 -4 -3 -7 -4
-6 -2 2 2 -8 19 -22 37 -16 20 -20 31 -11 28 8 -3 22 -17 31 -31z m-231 -48
c-10 -40 -20 -29 -16 17 3 31 7 37 13 25 5 -9 7 -28 3 -42z m58 25 c22 0 48
-44 48 -81 0 -69 -10 -75 -41 -27 -16 24 -29 50 -29 59 0 8 -4 19 -9 25 -5 5
-5 19 2 34 8 21 11 22 14 8 3 -10 9 -18 15 -18z m-313 -54 c1 -5 -2 -6 -6 -3
-3 4 -12 2 -19 -4 -10 -8 -11 -5 -1 21 10 25 13 28 19 13 3 -10 7 -22 7 -27z
m231 30 c0 -3 -4 -8 -10 -11 -5 -3 -10 -1 -10 4 0 6 5 11 10 11 6 0 10 -2 10
-4z m-213 -28 c-3 -8 -6 -5 -6 6 -1 11 2 17 5 13 3 -3 4 -12 1 -19z m-17 -53
c0 -14 -4 -25 -10 -25 -5 0 -10 4 -10 9 0 5 -3 16 -6 25 -4 11 -1 16 10 16 10
0 16 -9 16 -25z m-189 -112 c-12 -20 -14 -14 -5 12 4 9 9 14 11 11 3 -2 0 -13
-6 -23z"/>
<path d="M2491 3254 c0 -11 3 -14 6 -6 3 7 2 16 -1 19 -3 4 -6 -2 -5 -13z"/>
<path d="M3396 3215 c4 -8 10 -15 15 -15 4 0 6 7 3 15 -4 8 -10 15 -15 15 -4
0 -6 -7 -3 -15z"/>
<path d="M2795 3170 c3 -5 8 -10 11 -10 2 0 4 5 4 10 0 6 -5 10 -11 10 -5 0
-7 -4 -4 -10z"/>
<path d="M933 3693 c9 -2 25 -2 35 0 9 3 1 5 -18 5 -19 0 -27 -2 -17 -5z"/>
<path d="M3295 3619 c-11 -16 -1 -19 13 -3 7 8 8 14 3 14 -5 0 -13 -5 -16 -11z"/>
<path d="M1946 3349 c-16 -16 -17 -19 -4 -19 9 0 19 7 22 16 9 24 4 24 -18 3z"/>
<path d="M1450 3339 c0 -5 5 -7 10 -4 6 3 10 8 10 11 0 2 -4 4 -10 4 -5 0 -10
-5 -10 -11z"/>
<path d="M1710 3289 c0 -11 5 -17 10 -14 6 3 10 13 10 21 0 8 -4 14 -10 14 -5
0 -10 -9 -10 -21z"/>
<path d="M1630 3075 c0 -8 4 -15 10 -15 5 0 7 7 4 15 -4 8 -8 15 -10 15 -2 0
-4 -7 -4 -15z"/>
<path d="M8727 2765 c-9 -9 -21 -14 -27 -10 -5 3 -18 -3 -30 -15 l-20 -20 0
27 c0 14 -2 24 -5 22 -5 -6 -16 -75 -17 -107 0 -21 -1 -22 -13 -5 -7 10 -10
20 -7 23 4 3 9 18 10 34 4 28 3 28 -31 22 -19 -4 -47 -2 -63 4 -24 9 -31 8
-41 -7 -10 -12 -24 -17 -49 -14 -24 2 -34 -1 -30 -8 4 -7 -1 -11 -13 -11 -12
0 -21 4 -21 10 0 12 -64 30 -88 23 -10 -2 -23 -13 -30 -23 -10 -16 -9 -18 5
-13 13 5 15 2 10 -13 -7 -18 -6 -18 7 -1 16 20 30 8 20 -17 -7 -19 12 -22 19
-3 4 9 8 8 16 -3 8 -11 5 -19 -12 -32 -18 -15 -19 -18 -5 -18 10 0 22 -9 27
-19 10 -18 7 -26 -36 -81 -2 -2 -8 2 -13 10 -11 17 -93 21 -109 5 -6 -6 -13
-26 -17 -45 -4 -24 -3 -31 4 -21 8 11 10 11 15 0 3 -8 8 0 12 18 7 30 8 31 39
21 31 -11 95 -58 79 -58 -5 0 -14 5 -20 11 -18 18 -31 1 -28 -36 3 -34 -11
-57 -24 -39 -31 44 -121 80 -113 45 1 -7 -2 -9 -9 -5 -6 3 -14 2 -18 -2 -3 -5
-17 -15 -31 -21 l-25 -12 27 0 c15 -1 30 4 33 9 3 6 14 10 23 10 12 0 8 -7
-13 -21 -25 -18 -27 -20 -7 -16 16 4 22 1 22 -11 0 -13 2 -14 8 -4 5 7 16 10
25 6 18 -7 23 -24 7 -24 -5 0 -10 5 -10 12 0 6 -2 9 -5 6 -15 -15 13 -43 44
-46 41 -3 43 -5 36 -24 -4 -11 -14 -14 -28 -10 -19 5 -20 3 -9 -10 11 -14 10
-17 -5 -21 -17 -4 -17 -5 0 -6 9 0 17 -6 17 -11 0 -6 -13 -9 -28 -8 -30 2
-102 -36 -102 -54 0 -7 5 -7 13 1 8 6 16 9 19 6 3 -3 11 1 18 10 22 26 28 16
17 -26 -6 -25 -17 -43 -28 -46 -9 -3 -20 -12 -23 -21 -3 -10 -10 -27 -16 -40
-6 -15 -6 -21 0 -17 6 3 10 2 10 -4 0 -5 3 -18 7 -28 6 -16 5 -16 -10 -5 -10
9 -27 11 -47 7 -24 -5 -30 -3 -30 10 0 11 5 15 15 11 8 -3 15 -1 15 4 0 13
-66 7 -111 -10 -35 -12 -37 -16 -36 -56 0 -24 4 -41 9 -38 4 3 7 -3 6 -13 -3
-38 2 -64 12 -58 6 3 10 18 10 33 1 15 7 38 16 52 l14 25 -1 -25 c-3 -61 2
-110 11 -110 6 0 10 10 10 23 0 23 17 47 32 47 5 0 4 -8 -1 -19 -6 -10 -8 -21
-4 -24 3 -4 0 -13 -6 -21 -7 -8 -10 -20 -6 -26 3 -5 0 -10 -7 -10 -7 0 -5 -5
6 -12 14 -8 24 -8 37 1 29 18 41 14 33 -11 -4 -13 -7 -30 -6 -39 0 -14 -6 -15
-41 -7 -62 14 -108 17 -101 7 3 -5 -5 -9 -18 -9 -13 -1 -34 -7 -48 -15 l-25
-14 27 -1 c15 0 30 -5 34 -12 5 -8 -4 -9 -32 -5 -25 4 -34 3 -23 -3 10 -6 14
-20 13 -42 -2 -18 -1 -41 2 -51 6 -18 7 -17 29 3 17 16 24 18 28 8 3 -7 6 -2
6 11 1 22 0 23 -23 8 -22 -15 -24 -15 -29 3 -7 26 12 39 46 33 26 -5 28 -9 23
-34 -3 -18 -1 -29 5 -29 7 0 9 -11 7 -24 -4 -18 1 -27 16 -34 19 -8 19 -9 -9
-23 -17 -8 -30 -19 -30 -24 0 -6 -4 -16 -8 -22 -5 -8 -3 -13 5 -13 7 0 13 -11
13 -26 0 -18 -12 -34 -42 -57 -39 -30 -67 -68 -67 -92 0 -5 -6 -28 -13 -49
-15 -45 -9 -63 7 -21 14 37 24 26 10 -11 l-10 -29 20 25 c11 14 33 38 47 53
27 27 27 27 38 7 6 -11 15 -17 19 -13 4 4 7 -8 6 -27 -3 -54 0 -58 18 -21 20
40 38 50 45 24 3 -13 10 -6 25 27 16 35 21 40 21 22 1 -31 18 -19 26 18 4 16
11 33 17 37 8 4 9 0 5 -11 -4 -10 -4 -28 -1 -42 l6 -24 19 24 c15 19 19 42 20
113 1 52 5 80 9 68 7 -19 8 -18 12 5 4 19 6 15 7 -13 1 -33 3 -37 18 -28 13 7
23 5 36 -7 16 -14 20 -14 28 -2 8 12 9 9 6 -10 -3 -14 -9 -47 -12 -73 -4 -26
-18 -64 -31 -83 -13 -19 -24 -38 -24 -42 0 -5 -5 -13 -11 -19 -14 -14 -18
-267 -5 -280 5 -4 11 -3 13 4 2 7 10 10 17 7 14 -5 26 34 28 86 0 14 3 19 5
13 5 -14 24 -18 22 -6 -5 29 3 93 10 93 15 0 23 -37 22 -98 0 -60 7 -82 20
-61 6 9 9 -2 9 -32 0 -25 5 -50 12 -57 9 -9 9 -85 0 -329 -7 -175 -15 -360
-19 -410 l-6 -93 41 0 40 0 6 62 c4 35 6 79 5 98 -3 60 12 604 17 629 4 19 7
22 14 11 7 -12 10 -12 16 3 3 9 10 15 14 12 5 -3 19 11 31 32 27 43 41 171 26
241 -9 44 -27 49 -27 6 0 -25 -14 -32 -25 -14 -5 8 -11 7 -21 -1 -17 -14 -18
5 -6 91 l7 55 6 -65 c5 -54 6 -45 7 52 2 124 6 148 27 148 7 0 16 10 20 23 8
21 8 21 12 -5 2 -15 -3 -41 -12 -59 -17 -32 -34 -181 -20 -167 5 4 14 3 21 -3
11 -9 16 -5 24 15 12 33 16 33 14 -1 0 -15 5 -33 11 -39 12 -13 25 -307 25
-588 0 -83 3 -236 7 -339 l6 -188 35 3 35 3 -2 110 c-1 61 -6 307 -12 548 -8
345 -8 441 2 453 10 12 14 12 20 2 4 -7 10 -10 13 -7 9 8 9 72 1 112 -4 20 -3
37 1 37 20 0 37 -19 31 -34 -4 -10 -1 -16 9 -16 8 0 13 -4 10 -9 -3 -4 -1 -22
3 -39 8 -25 5 -36 -17 -66 -14 -20 -22 -39 -19 -42 4 -4 11 4 16 17 9 22 10
22 10 3 1 -11 -5 -26 -11 -33 -11 -10 -10 -14 4 -22 12 -7 15 -19 12 -44 -2
-19 -2 -35 1 -35 12 0 53 46 68 75 l15 30 13 -28 13 -28 11 28 12 28 6 -43 c4
-24 11 -40 16 -37 24 14 36 -7 36 -68 1 -34 7 -73 15 -87 8 -14 13 -28 12 -33
-1 -4 2 -25 7 -47 5 -24 6 -117 1 -223 -5 -100 -11 -257 -14 -349 l-6 -168 24
0 c22 0 23 2 29 128 4 70 7 181 7 247 0 66 3 171 7 233 6 102 8 115 27 123 15
7 28 33 45 87 13 42 28 83 34 90 13 17 27 15 27 -3 0 -19 16 -19 24 0 10 27
28 17 22 -13 -4 -15 -8 -45 -10 -67 -2 -22 -7 -58 -10 -80 -3 -22 -3 -34 0
-27 9 19 24 14 24 -9 0 -13 4 -18 12 -13 8 5 9 2 5 -9 -3 -10 -2 -17 3 -17 6
0 10 5 10 10 0 6 5 10 10 10 6 0 10 -9 10 -21 0 -21 0 -21 20 2 l19 24 1 -57
c0 -32 4 -58 10 -58 6 0 7 -106 3 -290 l-6 -290 21 0 c22 0 22 2 23 228 1 125
3 234 4 242 1 8 3 41 4 74 1 44 4 57 14 53 8 -3 21 9 32 29 14 26 17 46 12 93
-4 38 -3 62 4 67 17 10 23 -5 21 -51 -2 -49 3 -55 24 -27 13 16 15 16 29 -2
13 -17 15 -17 21 -3 3 10 4 24 0 32 -3 8 -2 15 3 15 14 0 20 63 8 85 -6 11
-11 24 -12 30 0 14 -48 23 -72 12 -13 -6 -24 -22 -28 -43 -3 -19 -10 -34 -16
-34 -16 0 -23 31 -11 51 15 24 15 32 1 23 -7 -4 -10 -1 -7 7 3 8 15 13 27 12
27 -3 28 17 1 24 -23 6 -27 23 -6 23 7 0 20 -10 28 -21 12 -19 16 -20 36 -8
26 17 28 32 5 59 -12 13 -24 18 -41 13 -18 -4 -30 1 -49 21 -22 24 -22 27 -6
32 10 3 26 10 35 15 24 12 36 -10 14 -26 -14 -11 -13 -13 13 -18 16 -3 36 -13
45 -22 13 -13 20 -14 38 -4 13 7 28 19 34 27 7 10 26 15 53 14 48 -2 52 7 13
30 -24 14 -31 14 -60 3 -17 -8 -32 -19 -32 -25 0 -6 -5 -8 -10 -5 -6 4 -7 11
-4 17 4 6 -2 8 -17 4 -23 -7 -23 -7 -4 9 13 11 20 30 22 63 3 62 2 62 18 27
16 -34 20 -19 5 19 -8 21 -6 26 12 32 16 5 18 8 7 15 -24 15 -59 11 -59 -8 0
-15 -1 -15 -13 2 -8 10 -19 15 -25 11 -7 -4 -14 3 -18 19 -3 14 -10 25 -15 25
-5 0 -9 9 -9 19 0 11 -3 22 -8 24 -12 8 -49 -28 -44 -43 5 -13 3 -13 -11 -1
-10 7 -17 10 -17 6 0 -4 -11 0 -24 8 -17 12 -26 13 -35 4 -6 -6 -11 -7 -11 -2
0 6 -5 3 -10 -5 -8 -11 -9 -8 -4 13 4 17 2 27 -5 27 -8 0 -9 6 -3 18 12 23 4
42 -15 35 -11 -4 -14 -2 -11 8 3 8 18 14 34 14 16 0 34 4 41 8 6 4 15 2 18 -4
5 -7 12 -3 22 10 8 12 21 21 29 21 8 0 14 5 14 11 0 5 -4 8 -9 4 -6 -3 -13 1
-18 8 -4 8 -23 16 -41 19 -28 4 -35 0 -53 -29 -21 -33 -35 -41 -41 -23 -2 6
-8 6 -18 0 -13 -8 -12 -10 3 -10 9 0 17 -4 17 -10 0 -5 -8 -10 -17 -10 -15 0
-14 -2 3 -14 15 -11 16 -17 7 -27 -18 -18 -43 12 -37 42 9 38 27 70 34 60 3
-6 10 -3 16 7 16 24 0 62 -26 62 -16 0 -19 5 -14 24 4 18 0 28 -17 40 -16 11
-25 12 -30 5 -4 -7 -12 -8 -18 -5 -6 4 -25 -3 -42 -15 -32 -22 -43 -19 -52 16
-4 12 -5 8 -4 -10 2 -23 -4 -32 -20 -40 -13 -5 -23 -15 -23 -22 0 -7 -8 -13
-17 -13 -15 0 -16 -2 -3 -10 11 -7 11 -10 2 -10 -7 0 -23 11 -36 25 -13 14
-28 25 -33 25 -5 0 -22 13 -37 29 -17 18 -34 27 -44 24 -12 -5 -14 -1 -9 18 4
13 7 31 7 39 0 13 2 13 9 1 5 -8 7 -21 4 -30 -3 -9 6 -3 21 13 l26 29 1 -24
c1 -13 1 -35 0 -49 -1 -24 0 -24 13 5 8 17 17 38 20 47 9 29 36 10 36 -26 l1
-31 13 25 c7 14 16 36 20 50 3 14 3 19 0 13 -10 -22 -25 -14 -22 10 3 20 -2
22 -51 27 -48 4 -52 7 -38 19 11 9 17 10 17 2 0 -6 5 -11 11 -11 8 0 7 5 -2
16 -10 13 -10 17 1 24 9 6 17 5 22 -3 11 -18 21 -1 13 22 -4 13 -15 21 -28 21
-17 0 -19 2 -8 9 12 8 12 13 -1 33 -15 23 -15 25 14 41 27 15 30 22 25 50 -3
17 -3 26 0 20 2 -7 11 -13 19 -13 8 0 14 -8 14 -17 1 -14 4 -12 15 7 11 19 14
21 15 8 0 -10 4 -18 9 -18 5 0 12 -16 15 -36 6 -30 10 -33 22 -23 8 7 12 20 9
30 -4 10 -1 27 5 36 8 15 9 12 4 -11 -5 -19 -3 -27 3 -23 6 4 14 24 17 44 4
21 9 47 12 58 4 14 2 16 -4 7 -6 -10 -12 -8 -26 7 -10 11 -31 23 -47 26 -16 4
-29 11 -29 16 0 19 -16 7 -38 -29 -13 -20 -21 -29 -18 -20 3 12 -4 23 -24 35
-17 9 -30 22 -30 27 0 5 -3 6 -7 3 -6 -7 -66 54 -84 86 -12 21 -5 22 15 1 14
-14 17 -14 22 0 4 12 12 13 32 5 25 -9 26 -8 8 6 -11 8 -18 15 -15 16 2 0 13
2 24 4 26 5 65 -21 65 -42 0 -13 3 -14 12 -5 8 8 8 15 -2 27 -20 24 16 19 41
-6 16 -16 23 -18 29 -9 6 10 12 9 26 -5 11 -10 20 -13 22 -7 2 6 10 8 18 5 8
-3 14 0 14 6 0 7 -7 14 -15 17 -8 4 -15 10 -15 15 0 5 7 9 15 9 8 0 15 4 15
10 0 5 7 7 17 3 12 -5 15 -2 11 13 -5 20 15 48 26 37 10 -10 7 -25 -4 -18 -5
3 -10 2 -10 -4 0 -5 4 -12 10 -16 5 -3 6 -13 3 -23 -5 -13 -3 -14 7 -5 7 6 19
9 26 6 9 -3 14 1 14 12 0 9 4 14 9 11 14 -9 41 5 41 21 0 8 -10 24 -22 35 -13
11 -17 17 -10 13 6 -3 12 -3 12 2 0 9 -112 63 -132 63 -15 0 -48 -35 -48 -51
0 -5 -11 -2 -24 8 l-23 18 22 40 c20 35 28 40 64 43 32 2 41 -1 41 -13 0 -9 5
-13 10 -10 6 3 10 17 10 30 0 18 -4 23 -15 19 -11 -4 -13 -2 -9 9 4 12 1 14
-17 10 -15 -4 -20 -3 -15 5 9 15 -25 4 -39 -13 -5 -6 -22 -15 -37 -19 -26 -6
-40 -26 -18 -26 6 0 10 -10 10 -22 0 -23 -1 -22 -13 2 -19 38 -37 30 -62 -29
-17 -42 -28 -55 -46 -57 -13 -2 -38 -6 -56 -10 -17 -3 -39 -1 -49 4 -16 9 -12
12 21 21 31 8 43 18 54 43 16 37 53 76 67 71 5 -2 25 22 44 52 19 30 38 55 43
55 4 0 7 6 7 13 0 14 31 47 43 47 4 0 7 -10 7 -22 0 -22 0 -22 19 -3 10 11 22
31 26 45 7 23 7 23 -9 7 -20 -20 -32 -21 -42 -5 -5 7 -2 9 8 5 11 -4 17 2 20
18 4 19 0 24 -24 29 -49 10 -107 -9 -108 -34 0 -3 14 -11 31 -19 40 -17 29
-28 -12 -11 -33 14 -49 4 -49 -31 0 -9 -7 -22 -15 -29 -17 -15 -19 -7 -5 21 6
11 7 19 1 19 -5 0 -11 -7 -15 -15 -3 -8 -11 -15 -19 -15 -13 0 -19 -23 -20
-72 0 -16 -4 -28 -8 -28 -5 0 -9 9 -9 21 0 13 -4 18 -12 13 -7 -4 -8 -3 -4 4
4 6 2 21 -4 32 -6 11 -7 20 -2 20 12 0 32 61 32 97 0 17 9 42 21 57 19 24 19
26 2 28 -10 0 -26 1 -35 0 -10 -1 -18 5 -18 14 0 8 -4 12 -10 9 -5 -3 -10 0
-10 7 0 8 -6 22 -13 32 -13 17 -14 17 -30 1z m-117 -55 c0 -5 -4 -10 -10 -10
-5 0 -10 5 -10 10 0 6 5 10 10 10 6 0 10 -4 10 -10z m-175 -40 c8 -13 -5 -13
-25 0 -13 8 -13 10 2 10 9 0 20 -4 23 -10z m575 -71 c0 -5 -4 -9 -10 -9 -5 0
-10 7 -10 16 0 8 5 12 10 9 6 -3 10 -10 10 -16z m-604 -8 c-14 -5 -16 -10 -7
-15 6 -4 9 -15 7 -24 -5 -14 2 -17 34 -18 27 0 40 4 40 13 0 16 10 16 33 -1
23 -18 22 -24 -5 -24 -80 0 -140 -8 -149 -19 -9 -10 -14 -10 -25 2 -19 19 -18
24 5 18 13 -3 23 2 31 17 8 15 8 20 1 16 -6 -4 -11 -3 -11 3 0 5 5 13 11 17 8
5 8 9 -1 14 -6 4 4 7 22 7 24 1 28 -1 14 -6z m44 5 c0 -3 -4 -8 -10 -11 -5 -3
-10 -1 -10 4 0 6 5 11 10 11 6 0 10 -2 10 -4z m318 -63 c-1 -10 2 -28 6 -40 8
-26 -8 -32 -18 -7 -9 24 -7 64 3 64 6 0 9 -8 9 -17z m-228 -64 c0 -18 -18 -9
-23 12 -4 16 -3 18 9 8 8 -6 14 -15 14 -20z m-230 -43 c0 5 4 4 8 -2 4 -6 15
-15 25 -21 17 -9 16 -11 -12 -23 -17 -7 -31 -17 -31 -22 0 -5 9 -4 20 2 18 10
21 7 26 -20 7 -33 27 -39 50 -15 17 17 34 20 34 6 0 -5 9 -7 20 -4 13 4 20 0
20 -10 0 -8 7 -17 15 -21 22 -8 18 -25 -5 -19 -12 3 -22 -1 -26 -11 -3 -9 -14
-16 -23 -17 -9 0 0 -6 18 -13 27 -10 32 -14 20 -21 -7 -5 -18 -10 -24 -10 -17
-2 -49 -17 -67 -32 -15 -13 -16 -13 -11 9 4 18 3 20 -6 8 -8 -11 -11 -11 -11
-2 0 22 -23 39 -46 34 -16 -3 -25 4 -37 28 -15 28 -15 34 -1 54 8 13 15 40 16
60 1 20 6 36 12 36 6 0 5 5 -2 12 -17 17 -15 33 3 18 8 -7 15 -9 15 -4z m512
-13 c24 -21 23 -43 -2 -43 -11 0 -20 -5 -20 -11 0 -7 -10 -9 -27 -4 -16 4 -32
8 -38 10 -5 1 -18 5 -28 10 -9 4 -23 2 -31 -4 -17 -14 -29 -2 -15 16 9 10 8
13 -2 13 -9 0 -10 3 -2 11 14 14 83 1 83 -16 0 -29 56 -33 63 -5 5 21 -7 28
-18 10 -3 -5 -11 -10 -17 -10 -10 0 20 38 31 39 3 1 13 -6 23 -16z m-259 -111
c-12 -3 -12 -7 2 -22 16 -18 15 -19 -14 -18 -40 1 -47 13 -20 31 13 9 16 17
10 22 -6 3 -11 14 -11 23 0 13 5 12 23 -8 18 -19 20 -26 10 -28z m397 14 c0
-3 -4 -8 -10 -11 -5 -3 -10 -1 -10 4 0 6 5 11 10 11 6 0 10 -2 10 -4z m94 -51
c-6 -16 -24 -21 -24 -7 0 11 11 22 21 22 5 0 6 -7 3 -15z m-506 -15 c6 0 12
-5 12 -11 0 -7 -12 -10 -30 -7 -16 2 -32 0 -34 -6 -2 -6 -5 0 -5 13 -1 19 3
22 22 17 12 -3 28 -6 35 -6z m-298 -10 c0 -5 -8 -10 -17 -10 -15 0 -16 2 -3
10 19 12 20 12 20 0z m504 -15 c-18 -28 -17 -27 -38 -19 -35 14 -15 42 32 43
22 1 22 0 6 -24z m-114 -2 c0 -5 -9 -23 -21 -42 -14 -24 -25 -32 -39 -28 -10
3 -21 1 -24 -4 -2 -5 -3 -4 -2 3 1 7 11 13 21 13 10 0 25 14 34 32 15 30 31
43 31 26z m280 -2 c0 -5 3 -16 6 -25 4 -11 1 -16 -10 -16 -10 0 -16 9 -16 25
0 14 5 25 10 25 6 0 10 -4 10 -9z m-360 -11 c0 -5 -4 -10 -10 -10 -5 0 -10 5
-10 10 0 6 5 10 10 10 6 0 10 -4 10 -10z m174 -36 c4 -12 2 -12 -14 -4 -11 6
-20 15 -20 20 0 14 28 1 34 -16z m-550 -64 c-6 -5 -24 21 -24 34 0 6 6 1 14
-10 8 -10 12 -21 10 -24z m128 10 c-12 -11 -25 -20 -29 -20 -9 1 36 40 45 40
3 0 -4 -9 -16 -20z m290 -22 c-9 -9 -12 -7 -12 12 0 19 3 21 12 12 9 -9 9 -15
0 -24z m174 -5 c37 -42 45 -73 17 -68 -10 2 -21 4 -25 4 -4 1 -11 19 -14 42
-7 40 -7 41 -40 34 -22 -4 -34 -2 -34 5 0 6 4 8 10 5 5 -3 18 -1 27 4 24 14
21 16 59 -26z m-135 -60 l-28 -58 36 -16 c42 -19 61 -10 61 29 0 16 4 22 9 17
5 -6 6 -26 2 -45 -6 -32 -10 -35 -45 -38 -32 -3 -38 -1 -33 12 5 12 0 16 -18
16 -18 0 -35 -16 -70 -64 -42 -60 -75 -96 -75 -83 0 4 21 32 47 64 37 45 48
66 49 96 0 20 -3 37 -8 37 -4 0 -8 5 -8 10 0 6 6 10 14 10 8 0 16 7 20 15 3 8
14 15 25 15 10 0 21 9 24 20 3 11 10 20 15 20 6 0 -2 -26 -17 -57z m113 0 c18
-35 11 -41 -18 -20 -13 10 -16 20 -11 36 8 26 7 26 29 -16z m-467 -43 c14 -11
32 -20 39 -20 19 0 18 -16 -1 -24 -8 -3 -14 0 -12 6 2 14 -40 19 -63 7 -31
-16 -60 -25 -87 -28 -7 0 -10 -7 -7 -15 7 -18 -12 -30 -22 -15 -5 8 -13 4 -26
-12 l-19 -24 12 25 c6 14 18 32 26 42 10 11 11 18 4 23 -24 14 -9 23 17 9 23
-11 35 -11 63 -2 45 16 44 15 29 33 -19 23 16 20 47 -5z m523 -127 c0 -6 -9
-15 -20 -18 -24 -7 -26 -23 -5 -31 8 -4 12 -10 9 -16 -3 -5 4 -12 16 -15 16
-4 18 -8 9 -14 -9 -5 -20 -1 -31 11 -9 10 -22 20 -28 22 -7 2 -7 15 3 43 8 22
12 46 9 53 -2 9 4 7 17 -4 11 -10 21 -24 21 -31z m-244 -29 c-3 -8 -10 -12
-16 -9 -7 4 -6 14 2 28 12 24 24 8 14 -19z m164 -19 c0 -8 -4 -15 -10 -15 -5
0 -7 7 -4 15 4 8 8 15 10 15 2 0 4 -7 4 -15z m-624 -30 c-7 -18 -26 -20 -26
-2 0 18 24 41 28 27 2 -6 1 -17 -2 -25z m385 -25 c-19 -16 -36 -28 -38 -26 -8
8 9 32 30 42 40 20 43 14 8 -16z m283 15 c3 -8 1 -15 -4 -15 -6 0 -10 5 -10
11 0 5 -5 7 -12 3 -7 -4 -8 -3 -4 4 10 16 23 15 30 -3z m-679 -25 c3 -5 1 -10
-4 -10 -6 0 -11 5 -11 10 0 6 2 10 4 10 3 0 8 -4 11 -10z m152 -5 c0 -17 -13
-20 -21 -6 -4 5 0 12 6 14 7 3 13 6 14 6 0 1 1 -6 1 -14z m511 4 c-5 -10 24
-39 33 -33 5 3 9 1 9 -5 0 -6 -10 -16 -22 -22 -21 -11 -21 -12 -3 -25 18 -14
18 -14 -1 -15 -10 -1 -29 -3 -41 -4 -13 -1 -23 1 -23 5 0 15 -85 37 -108 29
-20 -8 -22 -6 -17 11 6 19 -7 26 -38 21 -4 -1 -3 8 3 20 9 15 18 19 33 15 12
-3 30 -6 40 -6 9 0 17 -6 17 -13 0 -7 16 -21 35 -30 19 -9 35 -21 35 -27 0
-18 15 -10 26 15 14 28 9 35 -22 35 -13 0 -26 5 -29 10 -4 6 7 10 24 10 17 0
31 5 31 11 0 6 5 9 11 7 6 -2 9 -6 7 -9z m-478 -3 c0 -3 -4 -8 -10 -11 -5 -3
-10 -1 -10 4 0 6 5 11 10 11 6 0 10 -2 10 -4z m107 -18 c-3 -8 -6 -5 -6 6 -1
11 2 17 5 13 3 -3 4 -12 1 -19z m127 -4 c3 -9 6 -25 6 -37 -1 -17 -2 -19 -9
-7 -16 27 -22 60 -13 60 6 0 13 -7 16 -16z m-404 -50 c0 -8 -4 -14 -10 -14 -5
0 -10 4 -10 10 0 10 -55 -16 -77 -37 -15 -13 -43 -7 -43 9 0 6 -6 8 -14 5 -8
-3 -17 -3 -20 0 -8 8 62 33 94 33 14 0 31 4 39 9 18 12 41 3 41 -15z m30 -10
c0 -8 -4 -14 -10 -14 -5 0 -10 9 -10 21 0 11 5 17 10 14 6 -3 10 -13 10 -21z
m70 -35 c-20 -44 -37 -69 -43 -63 -7 7 13 64 23 64 4 0 11 10 15 23 3 12 8 17
11 11 3 -6 0 -22 -6 -35z m125 0 c0 -22 -32 -22 -38 0 -4 17 -1 20 16 17 12
-2 22 -9 22 -17z m62 -39 c-5 -20 18 -48 30 -36 3 3 0 6 -8 7 -8 0 -1 5 15 10
17 4 32 6 35 4 9 -9 -34 -78 -59 -94 -14 -8 -30 -22 -36 -30 -9 -12 -15 -12
-43 0 -19 9 -29 19 -26 28 4 9 0 11 -11 7 -9 -4 -23 -1 -30 5 -15 13 -44 5
-44 -11 0 -7 9 -9 23 -5 21 6 21 6 -3 -14 l-25 -20 -6 22 c-3 12 -1 28 4 35 6
8 6 12 -1 12 -14 0 -23 43 -10 51 6 4 47 10 90 14 54 5 81 12 85 21 8 22 26
17 20 -6z m-300 -12 c-3 -8 -6 -5 -6 6 -1 11 2 17 5 13 3 -3 4 -12 1 -19z m53
-3 c0 -14 -4 -25 -10 -25 -11 0 -14 33 -3 43 11 11 13 8 13 -18z m60 15 c0 -5
-5 -10 -11 -10 -5 0 -7 5 -4 10 3 6 8 10 11 10 2 0 4 -4 4 -10z m364 -6 c9 -8
16 -18 16 -20 0 -7 -38 15 -45 26 -10 16 12 12 29 -6z m-49 -34 c-3 -5 -11
-10 -16 -10 -6 0 -7 5 -4 10 3 6 11 10 16 10 6 0 7 -4 4 -10z m565 -22 c0 -19
-2 -20 -10 -8 -13 19 -13 30 0 30 6 0 10 -10 10 -22z m-543 -10 c-3 -8 -6 -5
-6 6 -1 11 2 17 5 13 3 -3 4 -12 1 -19z m143 -53 c0 -8 5 -15 11 -15 6 0 9 -6
6 -14 -3 -7 -1 -18 5 -24 6 -6 6 -12 0 -16 -6 -4 -18 4 -26 16 -18 25 -21 68
-6 68 6 0 10 -7 10 -15z m630 -35 c0 -5 -5 -10 -11 -10 -5 0 -7 5 -4 10 3 6 8
10 11 10 2 0 4 -4 4 -10z m-554 -52 c6 -20 78 -136 91 -147 3 -3 3 3 -1 14 -5
14 -4 17 3 10 16 -16 1 -55 -20 -55 -13 0 -19 7 -19 23 0 30 -15 51 -30 42 -6
-4 -20 1 -31 11 -10 9 -19 13 -19 8 -1 -5 -9 14 -19 41 -16 46 -16 52 -2 72
18 23 35 16 47 -19z m-466 -45 c0 -26 3 -31 18 -27 15 5 15 4 -2 -10 -10 -8
-22 -13 -26 -11 -5 3 -10 -2 -14 -10 -7 -20 -26 -19 -26 1 0 9 8 38 17 65 19
51 33 48 33 -8z m70 -23 c0 -20 -5 -30 -15 -30 -18 0 -20 31 -3 48 17 17 18
16 18 -18z m725 1 c-3 -6 -11 -11 -16 -11 -5 0 -4 6 3 14 14 16 24 13 13 -3z
m72 -13 c-3 -8 -6 -5 -6 6 -1 11 2 17 5 13 3 -3 4 -12 1 -19z m-717 -3 c0 -8
-2 -15 -4 -15 -2 0 -6 7 -10 15 -3 8 -1 15 4 15 6 0 10 -7 10 -15z m227 -7
c-3 -8 -6 -5 -6 6 -1 11 2 17 5 13 3 -3 4 -12 1 -19z m254 9 c32 6 41 -12 12
-21 -24 -7 -83 -5 -83 4 0 14 24 30 33 21 6 -6 23 -7 38 -4z m186 -5 c-10 -10
-17 -24 -17 -30 0 -17 -26 -15 -45 4 -19 20 -13 30 11 16 12 -7 22 -4 35 9 24
24 37 25 16 1z m-76 -38 c13 -16 4 -34 -17 -34 -18 0 -53 -38 -54 -58 0 -7 -7
-15 -15 -18 -8 -4 -15 -14 -15 -23 0 -10 -11 -28 -24 -40 l-24 -22 -4 30 c-5
37 20 93 50 106 29 13 29 24 0 19 -13 -2 -18 -2 -11 2 7 3 9 12 6 20 -10 28
86 44 108 18z m165 -84 c13 0 24 -4 24 -10 0 -5 -10 -10 -22 -10 -34 0 -54
-16 -41 -32 5 -7 7 -24 3 -38 -4 -16 -8 -21 -13 -13 -4 7 -14 10 -21 7 -10 -4
-13 4 -12 28 0 26 -4 34 -20 36 -16 2 -20 9 -16 32 2 17 10 30 17 30 7 0 16 7
19 16 5 13 11 10 32 -15 16 -19 35 -31 50 -31z m-11 40 c-3 -5 -1 -10 4 -10 6
0 11 -5 11 -11 0 -8 -5 -8 -15 1 -13 11 -12 30 1 30 3 0 2 -4 -1 -10z m-678
-47 c-3 -10 -5 -4 -5 12 0 17 2 24 5 18 2 -7 2 -21 0 -30z m458 -43 c3 -5 -1
-10 -9 -10 -9 0 -16 5 -16 10 0 6 4 10 9 10 6 0 13 -4 16 -10z m29 -65 c-4 -8
-8 -15 -10 -15 -2 0 -4 7 -4 15 0 8 4 15 10 15 5 0 7 -7 4 -15z m296 -35 c0
-11 -4 -20 -9 -20 -6 0 -9 9 -8 20 1 11 5 20 9 20 4 0 8 -9 8 -20z m170 -10
c0 -5 -4 -10 -10 -10 -5 0 -10 5 -10 10 0 6 5 10 10 10 6 0 10 -4 10 -10z
m-190 -32 c0 -9 4 -8 10 2 17 27 11 0 -10 -40 -26 -51 -41 -52 -29 -2 5 20 9
40 9 45 0 12 20 8 20 -5z m44 -71 c-3 -63 -3 -62 -16 -48 -11 11 -10 14 0 18
10 4 10 9 -3 23 -17 19 -13 40 8 40 7 0 11 -13 11 -33z m28 -289 c-7 -7 -12
-8 -12 -2 0 14 12 26 19 19 2 -3 -1 -11 -7 -17z"/>
<path d="M8378 2244 c-5 -4 -8 -13 -8 -21 0 -16 36 -17 46 -1 5 7 2 9 -9 5
-10 -4 -17 0 -19 9 -2 9 -6 12 -10 8z"/>
<path d="M9127 1184 c-9 -10 2 -24 19 -24 8 0 14 7 14 15 0 15 -21 21 -33 9z"/>
<path d="M8870 2370 c0 -5 5 -10 10 -10 6 0 10 5 10 10 0 6 -4 10 -10 10 -5 0
-10 -4 -10 -10z"/>
<path d="M9070 2095 c0 -8 4 -15 10 -15 5 0 7 7 4 15 -4 8 -8 15 -10 15 -2 0
-4 -7 -4 -15z"/>
<path d="M9146 2085 c4 -8 15 -15 26 -15 17 0 18 3 8 15 -7 8 -19 15 -26 15
-8 0 -11 -6 -8 -15z"/>
<path d="M8897 2075 c-13 -9 -17 -20 -12 -35 9 -29 28 -20 36 18 7 35 3 38
-24 17z"/>
<path d="M7855 1989 c-4 -6 -5 -13 -2 -16 7 -7 27 6 27 18 0 12 -17 12 -25 -2z"/>
<path d="M7792 1638 c-15 -29 -13 -88 3 -88 15 0 29 75 17 96 -7 12 -10 11
-20 -8z"/>
<path d="M8910 1521 c0 -6 5 -13 10 -16 6 -3 10 1 10 9 0 9 -4 16 -10 16 -5 0
-10 -4 -10 -9z"/>
<path d="M9280 1360 c0 -6 7 -10 15 -10 8 0 15 2 15 4 0 2 -7 6 -15 10 -8 3
-15 1 -15 -4z"/>
<path d="M9250 1350 c0 -5 5 -10 10 -10 6 0 10 5 10 10 0 6 -4 10 -10 10 -5 0
-10 -4 -10 -10z"/>
<path d="M9311 1284 c0 -11 3 -14 6 -6 3 7 2 16 -1 19 -3 4 -6 -2 -5 -13z"/>
<path d="M9535 1170 c-3 -5 -1 -10 4 -10 6 0 11 5 11 10 0 6 -2 10 -4 10 -3 0
-8 -4 -11 -10z"/>
<path d="M8650 1089 c0 -5 5 -7 10 -4 6 3 10 8 10 11 0 2 -4 4 -10 4 -5 0 -10
-5 -10 -11z"/>
<path d="M9527 973 c-4 -3 -7 -17 -7 -30 0 -12 -4 -23 -10 -23 -5 0 -10 7 -10
15 0 8 -3 15 -8 15 -4 0 -7 -14 -7 -30 -1 -17 4 -29 10 -27 5 2 15 -3 22 -12
11 -14 13 -13 14 9 1 14 0 34 -1 45 -2 20 -1 20 13 1 8 -11 13 -29 10 -40 -2
-15 -1 -17 4 -6 11 22 35 19 44 -5 4 -11 8 -15 8 -8 1 6 8 19 17 28 13 13 14
18 3 31 -26 31 -86 53 -102 37z"/>
</g>
</svg>
